<svg width="32" height="32" viewBox="0 0 32 32" fill="none" xmlns="http://www.w3.org/2000/svg">
<rect width="32" height="32" rx="10" fill="white"/>
<path d="M18.4279 2.01117C19.5378 1.92369 20.4689 2.35553 21.1807 3.10807C21.8619 3.82839 22.3304 4.82398 22.6546 5.90769C23.3044 8.0796 23.473 10.8714 23.3183 13.6804C23.163 16.5005 22.6758 19.3721 21.9462 21.5885C21.5831 22.6917 21.1428 23.6857 20.6181 24.4357C20.1133 25.1574 19.3949 25.8416 18.437 25.9172C17.2647 26.0096 16.3683 25.4447 15.7766 24.5778C15.2231 23.7668 14.9224 22.6869 14.7635 21.5779C14.4428 19.3396 14.6411 16.5386 15.0534 14.2271L17.0273 14.5973C16.6375 16.7831 16.4712 19.4838 16.7487 21.4208C16.8889 22.3993 17.128 23.111 17.4205 23.5396C17.6749 23.9123 17.9312 24.0352 18.2832 24.0074C18.3533 24.0019 18.6055 23.9246 18.9877 23.3781C19.3503 22.8597 19.7139 22.0072 20.045 21.0013C20.704 18.9994 21.1672 16.2465 21.3149 13.5644C21.4632 10.8711 21.2874 8.28256 20.7363 6.44038C20.4602 5.51711 20.1139 4.79388 19.7404 4.39895C19.3974 4.03634 19.0334 3.88534 18.5818 3.92091C17.722 3.98873 16.7701 4.60326 15.8231 5.87766C14.8904 7.13293 14.0687 8.9644 13.453 10.9914L13.2722 11.5863L8.09002 12.2545L12.6317 14.5383L12.5393 15.2315C12.0831 18.6533 12.2498 22.0023 13.2181 24.3726C13.6966 25.5441 14.3566 26.4605 15.2035 27.0853C16.043 27.7048 17.1285 28.0841 18.5432 28.0841C19.9792 28.0841 21.0977 27.4308 22.012 26.3559C22.9475 25.2559 23.6415 23.7395 24.1446 22.1389C24.644 20.5497 24.9336 18.8768 25.098 17.664C25.1799 17.0599 25.23 16.5574 25.2595 16.2083C25.2742 16.0338 25.2836 15.8977 25.2895 15.8069C25.2924 15.7615 25.2945 15.7273 25.2957 15.7052C25.2962 15.6942 25.2967 15.6862 25.2969 15.6813C25.2971 15.6789 25.2971 15.6763 25.2971 15.6763C25.2982 15.6765 25.3298 15.6777 26.2992 15.7248C27.3014 15.7734 27.3014 15.7742 27.3014 15.7742V15.7751C27.3014 15.7751 27.3013 15.777 27.3012 15.7781C27.3011 15.7805 27.301 15.7837 27.3009 15.7876C27.3005 15.7955 27.2998 15.8066 27.299 15.8206C27.2975 15.849 27.2951 15.8898 27.2918 15.9419C27.2851 16.046 27.2745 16.1963 27.2585 16.3858C27.2265 16.7649 27.1728 17.3031 27.0855 17.9473C26.9115 19.2315 26.6011 20.888 26.0542 22.6281C25.511 24.3568 24.7124 26.1694 23.5242 27.5665C22.3148 28.9885 20.6781 30 18.5432 30C16.7572 30 15.2505 29.513 14.0316 28.6136C13.0722 27.9058 12.3303 26.9715 11.7713 25.899L11.2614 28.467L11.2616 28.4687C9.67574 28.5399 8.07714 28.2062 6.42638 27.5677L6.99457 25.7036C8.12214 26.1398 9.20142 26.4367 10.1978 26.5295C8.72942 25.4693 7.14084 23.8687 6.05699 22.3123L7.66079 21.0872C8.64532 22.5008 10.0822 23.9789 11.3136 24.8923C10.2721 22.2488 10.0992 18.9674 10.4663 15.65L5.51136 12.7903C5.14283 12.5776 4.94383 12.1507 5.01392 11.7231C5.08403 11.2955 5.40813 10.9588 5.82419 10.8813L11.7261 9.78275C12.3677 7.83975 13.2126 6.13743 14.227 4.77236C15.33 3.2879 16.7449 2.14388 18.4279 2.01117Z" fill="#191918"/>
<path d="M15.9344 9.68221C16.055 9.12763 16.5913 8.77833 17.132 8.90201C17.6729 9.02573 18.0135 9.57564 17.8928 10.1302L17.5996 11.4783C17.4791 12.0329 16.9428 12.3822 16.402 12.2586C15.8613 12.1349 15.5206 11.5851 15.6412 11.0305L15.9344 9.68221Z" fill="#191918"/>
</svg>
