<svg width="120" height="32" viewBox="0 0 120 32" fill="none" xmlns="http://www.w3.org/2000/svg">
<g clip-path="url(#clip0_1_1210)">
<path d="M18.3462 0.01277C19.6146 -0.0872069 20.6787 0.406321 21.4922 1.26637C22.2708 2.08959 22.8062 3.22741 23.1767 4.46593C23.9193 6.94812 24.112 10.1388 23.9352 13.349C23.7577 16.572 23.2009 19.8538 22.3671 22.3868C21.9521 23.6477 21.4489 24.7836 20.8493 25.6408C20.2723 26.4656 19.4513 27.2475 18.3566 27.3339C17.0168 27.4395 15.9923 26.7939 15.3161 25.8032C14.6835 24.8764 14.3399 23.6422 14.1583 22.3747C13.7918 19.8167 14.0184 16.6155 14.4896 13.9738L16.7455 14.3969C16.3 16.895 16.1099 19.9815 16.4271 22.1952C16.5873 23.3135 16.8606 24.1269 17.1949 24.6167C17.4856 25.0426 17.7785 25.1831 18.1808 25.1513C18.2609 25.145 18.5492 25.0567 18.986 24.4321C19.4004 23.8397 19.8159 22.8654 20.1943 21.7158C20.9474 19.4279 21.4768 16.2817 21.6456 13.2164C21.8151 10.1384 21.6142 7.18007 20.9844 5.07472C20.6688 4.01956 20.273 3.193 19.8462 2.74166C19.4542 2.32724 19.0382 2.15467 18.5221 2.19533C17.5394 2.27283 16.4515 2.97515 15.3693 4.43161C14.3033 5.8662 13.3642 7.95932 12.6606 10.2759L12.454 10.9558L6.53145 11.7194L11.7219 14.3295L11.6163 15.1217C11.095 19.0323 11.2855 22.8598 12.3921 25.5687C12.939 26.9075 13.6933 27.9549 14.6611 28.6689C15.6206 29.3769 16.8611 29.8104 18.478 29.8104C20.1191 29.8104 21.3974 29.0638 22.4423 27.8353C23.5114 26.5782 24.3046 24.8451 24.8795 23.0159C25.4503 21.1997 25.7813 19.2878 25.9691 17.9017C26.0627 17.2113 26.12 16.637 26.1537 16.238C26.1705 16.0386 26.1813 15.8831 26.188 15.7793C26.1913 15.7274 26.1937 15.6883 26.1951 15.6631C26.1957 15.6505 26.1962 15.6414 26.1965 15.6358C26.1967 15.633 26.1967 15.63 26.1967 15.63C26.1979 15.6303 26.2341 15.6317 27.342 15.6855C28.4873 15.741 28.4873 15.742 28.4873 15.742V15.743C28.4873 15.743 28.4872 15.7451 28.4871 15.7464C28.487 15.7491 28.4869 15.7528 28.4867 15.7573C28.4863 15.7663 28.4855 15.779 28.4846 15.795C28.4829 15.8274 28.4801 15.8741 28.4763 15.9336C28.4687 16.0526 28.4566 16.2243 28.4383 16.4409C28.4017 16.8742 28.3404 17.4892 28.2406 18.2255C28.0417 19.6931 27.687 21.5863 27.062 23.575C26.4412 25.5506 25.5285 27.6222 24.1705 29.2189C22.7883 30.844 20.9178 32 18.478 32C16.4368 32 14.7149 31.4434 13.3218 30.4156C12.2254 29.6066 11.3775 28.5388 10.7386 27.3132L10.1559 30.248L10.1561 30.2499C8.34371 30.3313 6.51673 29.95 4.63015 29.2202L5.27951 27.0898C6.56816 27.5884 7.80163 27.9277 8.94035 28.0337C7.2622 26.8221 5.44668 24.9928 4.20799 23.2141L6.0409 21.8139C7.16608 23.4295 8.80818 25.1187 10.2156 26.1626C9.02528 23.1415 8.82767 19.3913 9.24715 15.6L3.58441 12.3318C3.16324 12.0887 2.93581 11.6008 3.01591 11.1121C3.09604 10.6234 3.46644 10.2386 3.94193 10.1501L10.687 8.89457C11.4202 6.674 12.3858 4.72849 13.5451 3.16841C14.8057 1.47188 16.4228 0.164436 18.3462 0.01277Z" fill="#191918"/>
<path fill-rule="evenodd" clip-rule="evenodd" d="M42.3872 8.91248C43.998 8.91249 45.4459 9.58487 46.7238 10.8953C48.0222 12.2277 48.6565 14.0483 48.6565 16.3173C48.6565 18.4614 48.0285 20.239 46.7562 21.6216L46.7545 21.6231C45.4877 22.9798 43.9537 23.666 42.1689 23.666C40.6641 23.666 39.4171 23.1525 38.4484 22.1291V28.0531H34.2706V9.27507H38.3938V10.6521C39.4384 9.57193 40.7708 8.91334 42.3864 8.91333L42.3872 8.91248ZM41.2737 12.7799C40.4576 12.7799 39.7674 13.102 39.187 13.7645C38.6303 14.4035 38.3399 15.2444 38.3399 16.3173C38.3399 17.3674 38.6374 18.21 39.2146 18.8701C39.795 19.5326 40.4855 19.8545 41.3015 19.8545C42.2717 19.8545 42.9953 19.5083 43.5109 18.8296C44.066 18.1055 44.3427 17.2717 44.3427 16.3173C44.3427 15.3004 44.0708 14.4601 43.5394 13.779C43.0269 13.1221 42.2867 12.7799 41.2737 12.7799Z" fill="#191918"/>
<path fill-rule="evenodd" clip-rule="evenodd" d="M63.878 23.2224H59.7549V21.9435C58.6304 23.0082 57.2679 23.6961 55.6808 23.6961C54.9865 23.6961 54.2883 23.5378 53.5877 23.228C52.8839 22.9352 52.2228 22.5079 51.6028 21.9492L51.6011 21.9475L51.5995 21.946C50.9629 21.3524 50.4514 20.56 50.0584 19.5812L50.0567 19.5765C49.6787 18.588 49.493 17.4729 49.493 16.2354C49.493 14.0913 50.1209 12.3136 51.3933 10.9309C52.6577 9.53777 54.1824 8.83063 55.9529 8.83063C57.4628 8.83065 58.7182 9.36082 59.7002 10.4153V3.78744H63.878V23.2224ZM56.8773 12.6413C55.8912 12.6413 55.1501 12.9949 54.6155 13.6907L54.5658 13.7587C54.0621 14.4658 53.8074 15.2646 53.8074 16.2621C53.8074 17.2595 54.0787 18.1013 54.6132 18.8036C55.128 19.4799 55.8596 19.8278 56.8496 19.8278C57.6451 19.8278 58.3275 19.5082 58.9087 18.8433C59.5065 18.1621 59.811 17.3179 59.811 16.2904C59.811 15.1981 59.52 14.3256 58.9586 13.6477C58.3979 12.9713 57.7099 12.6413 56.8773 12.6413Z" fill="#191918"/>
<path fill-rule="evenodd" clip-rule="evenodd" d="M101.467 8.83148C103.599 8.83148 105.306 9.53539 106.548 10.9659C107.778 12.3818 108.388 14.1164 108.388 16.1519C108.388 16.5849 108.37 16.9369 108.331 17.2004L108.292 17.4583H98.6823C98.7448 18.1744 99.0343 18.8044 99.5578 19.3583C100.172 19.9713 100.894 20.2729 101.738 20.2729C102.764 20.2729 103.54 19.8562 104.098 19.0144L104.187 18.8814H108.334L108.178 19.2966C107.688 20.5925 106.902 21.6509 105.825 22.4651C104.748 23.2938 103.368 23.6952 101.71 23.6952C99.6652 23.6952 97.9413 22.9993 96.5606 21.6028L96.5592 21.6013C95.1761 20.183 94.4904 18.3568 94.4903 16.1519C94.4903 14.0978 95.1113 12.3607 96.3607 10.9627C97.6378 9.53543 99.3339 8.83149 101.467 8.83148ZM101.44 12.0566C100.661 12.0566 100.032 12.308 99.5324 12.8027L99.4865 12.8504C99.0984 13.2654 98.8518 13.7421 98.7434 14.2867H104.13C104.003 13.7093 103.728 13.2186 103.301 12.8091L103.296 12.8059L103.293 12.8027C102.811 12.308 102.219 12.0566 101.44 12.0566Z" fill="#191918"/>
<path d="M75.7041 18.9876C76.9701 18.9876 77.9964 20.0403 77.9964 21.3385V21.3995C77.9639 22.6701 76.9503 23.6894 75.7041 23.6895H75.6447C74.4055 23.6562 73.4116 22.6165 73.4116 21.3385C73.4117 20.0605 74.4381 18.9876 75.7041 18.9876Z" fill="#191918"/>
<path d="M114.797 9.27507H117.864V13.058H114.797V17.9318C114.797 18.6786 114.916 19.0963 115.074 19.2868C115.245 19.4725 115.569 19.604 116.128 19.604C116.688 19.604 117.16 19.5335 117.618 19.3941L118 19.2779V22.9775L117.786 23.0408C116.943 23.2906 116.064 23.4147 115.151 23.4147C113.551 23.4147 112.334 22.9953 111.585 22.0805L111.583 22.079V22.0773C110.853 21.1683 110.51 19.9016 110.51 18.3204V13.0563H108.935V9.27337H110.51V5.39702H114.797V9.27507Z" fill="#191918"/>
<path d="M88.0107 8.85749C89.6033 8.85749 90.8923 9.40564 91.8428 10.5182L91.9322 10.6244C92.8416 11.7337 93.2766 13.2941 93.2766 15.2598V23.2207H89.0176V15.5103C89.0176 14.568 88.8087 13.8983 88.4379 13.4539L88.4331 13.449C88.0836 13.0127 87.5783 12.7807 86.8706 12.7807C86.1162 12.7807 85.5301 13.0459 85.0849 13.5673C84.6405 14.0879 84.3985 14.8429 84.3985 15.872V23.2207H80.1394V9.27507H84.344V10.6139C85.2289 9.51514 86.4553 8.85833 88.0107 8.85749Z" fill="#191918"/>
<path d="M71.9707 3.61883C72.7749 3.61883 73.5523 3.72416 74.3027 3.9358L74.521 3.9974V7.71643L74.147 7.61412C73.622 7.4706 73.1602 7.40182 72.7577 7.40181C72.22 7.40181 71.8697 7.54695 71.6506 7.78614C71.4276 8.02861 71.29 8.42033 71.29 9.018V9.27507H74.1138V13.058H71.29V23.2199H67.0039V13.058H65.1575V9.27507H67.0039V8.76732C67.0039 7.14062 67.4152 5.85526 68.2835 4.96324C69.1525 4.0518 70.3979 3.61884 71.9707 3.61883Z" fill="#191918"/>
<path d="M15.4965 8.77968C15.6343 8.14587 16.2472 7.74667 16.8652 7.88802C17.4833 8.02941 17.8726 8.65788 17.7347 9.29169L17.3996 10.8324C17.2618 11.4662 16.6489 11.8654 16.0309 11.7241C15.4129 11.5827 15.0236 10.9544 15.1614 10.3206L15.4965 8.77968Z" fill="#191918"/>
</g>
<defs>
<clipPath id="clip0_1_1210">
<rect width="120" height="32" fill="white"/>
</clipPath>
</defs>
</svg>
