<svg width="108" height="64" viewBox="0 0 108 64" fill="none" xmlns="http://www.w3.org/2000/svg">
<g clip-path="url(#clip0_6_233)">
<path d="M54 14.583C54.695 14.615 55.36 14.879 55.888 15.333C56.606 16.006 56.795 17.131 56.455 18.03C55.134 20.727 51.993 22.529 49.845 23.125C48.562 23.425 46.938 23.425 45.767 22.975C45.2 23.312 44.722 24.402 44.03 23.949C43.028 23.173 43.895 21.958 43.317 21.096C43.197 20.918 42.897 20.906 42.747 20.615C41.953 18.892 42.935 17.243 44.03 15.932C45.855 13.912 51.092 11.661 54 14.582M47.92 15.93C46.9 16.118 45.748 16.558 45.125 17.28C44.502 18 44.106 18.703 44.483 19.452C45.806 18.479 46.447 17.13 47.92 16.306C47.92 16.156 48.146 16.042 47.92 15.93ZM54.076 16.306C51.47 16.08 49.506 18.029 47.656 19.902C47.542 20.202 46.863 20.539 47.391 20.876C49.884 21.1 52.263 20.389 54.076 18.74C54.606 18.253 54.982 17.617 54.718 16.942C54.5848 16.6615 54.3577 16.4365 54.076 16.306ZM76.66 27.47C77.869 30.392 78.888 35 76.66 37.81C76.056 38.484 74.998 39.106 74.319 38.597C71.826 36.612 70.769 33.764 69.221 31.216C68.994 31.104 68.994 31.404 68.881 31.516C68.315 34.101 69.371 37.473 67.597 39.496C66.917 39.608 66.282 39.261 66.049 38.596C65.179 35.936 66.086 33.164 66.312 30.504C66.842 29.154 67.068 27.582 68.239 26.57C70.127 27.32 71.033 29.418 72.127 30.954C72.921 32.114 73.563 33.427 74.469 34.476C75.262 34.139 74.872 33.11 74.847 32.49C74.544 30.055 73.864 27.807 73.222 25.484C73.185 24.884 72.845 23.874 73.486 23.499C75.188 24.249 75.904 26.01 76.66 27.47ZM65.255 26.569C65.255 27.132 64.802 27.834 64.423 27.919C60.798 28.479 56.757 28.143 53.359 29.267C53.245 29.679 53.736 29.754 54.001 29.866C56.908 30.316 59.968 30.428 62.801 31.14C64.298 31.517 64.841 33.276 64.953 34.737C65.023 35.889 64.576 37.284 63.443 38.071C60.649 39.831 56.381 39.757 53.548 38.147C52.465 37.544 51.433 36.574 51.358 35.375C51.364 34.422 51.774 33.673 52.453 33.314C55.173 32.227 58.533 32.828 60.875 34.213C61.025 34.963 60.208 34.922 59.816 35.187C57.21 36.686 55.247 33.502 52.83 34.662C52.49 34.887 52.245 35.514 52.64 35.712C55.624 37.022 58.948 36.086 61.894 35.262C62.234 35.15 62.649 34.812 62.686 34.476C62.573 33.276 61.214 33.015 60.345 32.678C57.777 32.041 54.945 32.041 52.188 31.778C51.659 31.667 50.985 31.301 50.828 30.88C50.527 29.98 50.527 28.744 51.206 27.995C54.718 24.923 60.043 25.185 64.499 26.01C64.801 26.12 65.141 26.23 65.255 26.569ZM48.75 27.995C49.09 31.591 49.279 34.925 49.203 38.71C49.128 39.196 48.561 39.31 48.183 39.497C47.58 39.609 46.799 39.481 46.56 39.16C45.691 37.773 45.993 35.9 45.918 34.214C46.031 31.554 45.993 28.67 46.748 26.197C46.893 25.837 47.315 25.523 47.655 25.747C48.561 26.197 48.712 27.097 48.75 27.995ZM90.708 27.471C90.889 27.774 91.079 28.241 90.708 28.445C89.008 29.194 86.705 28.857 84.741 29.081C84.212 29.531 83.796 30.28 83.984 30.955C84.174 31.067 84.344 31.238 84.552 31.215C85.759 31.292 87.572 30.654 88.367 31.778C88.561 32.113 88.341 33.361 87.801 33.388C86.327 33.578 83.904 33.206 83.192 33.578C82.286 34.177 82.361 35.338 82.022 36.275C82.664 36.688 83.336 36.265 84.098 36.163C85.496 35.938 87.045 35.526 88.441 35.826C88.706 36.312 89.084 36.836 88.819 37.436C86.438 39.31 83.367 41.23 80.096 39.872C78.868 39.326 78.321 37.474 78.736 35.902C79 34.777 80.171 33.692 79.454 32.492C79.341 31.967 79.644 31.518 80.096 31.406C81.342 31.406 81.077 29.87 81.72 29.156C81.002 28.371 79.19 28.408 79.379 26.835C80.248 26.385 81.306 26.535 82.286 26.385C84.514 25.935 87.006 25.673 89.274 25.935C89.725 26.025 90.33 26.909 90.708 27.471ZM36.778 18.929C40.263 21.755 44.785 26.572 44.218 32.116C43.538 36.5 38.855 39.796 34.89 40.846C31.038 41.97 26.204 41.856 22.276 40.958C22.011 41.671 21.747 42.532 20.916 42.832C20.388 43.019 19.708 42.907 19.293 42.569C18.123 41.483 19.066 39.385 17.366 38.711C14.043 37.325 10.456 34.59 8.75602 31.218C8.53002 30.544 8.79402 29.87 9.20902 29.345C11.815 27.285 15.101 26.461 18.386 25.823C18.576 25.898 18.5 25.636 18.651 25.561C18.839 23.313 18.915 21.028 19.632 19.005C19.6731 18.9366 19.7275 18.8773 19.7921 18.8306C19.8567 18.7839 19.9301 18.7507 20.0078 18.7331C20.0856 18.7156 20.1661 18.7139 20.2445 18.7284C20.3229 18.7428 20.3976 18.7729 20.464 18.817C22.541 20.39 21.558 23.351 22.465 25.486C26.43 25.673 30.395 25.86 33.53 28.071C34.588 28.933 34.846 30.578 34.512 31.518C34.179 32.457 33.077 33.128 32.057 33.203C31.377 33.203 30.093 33.269 30.169 32.753C30.244 32.239 32.479 31.396 31.793 30.693C30.806 29.683 25.87 29.082 22.811 28.707C22.433 28.632 22.087 28.745 22.087 29.157C22.011 32.004 21.785 35.151 22.276 37.887C22.313 38.074 22.54 38.299 22.729 38.336C28.129 39.196 33.832 38.71 38.062 35.638C40.026 34.066 40.668 31.854 40.328 29.418C38.628 22.638 31.491 18.554 25.638 15.931C19.7298 13.3564 13.3042 12.1897 6.86802 12.523C5.79102 12.601 4.08602 12.969 4.07302 13.347C4.06002 13.725 6.00502 13.607 5.77302 14.321C5.54002 15.035 3.56302 14.611 2.97802 14.433C2.39202 14.255 2.44802 13.422 2.60002 12.897C4.07302 10.312 8.18402 10.103 10.04 10.013C20.312 9.74998 30.245 13.63 36.778 18.929ZM18.273 28.969C15.667 29.007 12.91 29.269 10.493 30.169C10.003 30.355 9.39802 30.879 9.77502 31.517C10.757 32.827 12.161 33.904 13.477 34.664C14.792 35.422 16.536 36.387 18.122 36.613C18.5 34.177 18.5 31.779 18.462 29.269C18.31 29.194 18.462 29.045 18.273 28.969ZM96.333 25.559C96.221 28.819 93.161 30.843 93.161 34.102C93.274 34.214 93.351 34.364 93.501 34.29C95.956 31.63 98.373 27.846 101.96 26.722C102.906 26.647 103.76 27.462 104.114 28.072C105.36 30.544 105.059 34.028 103.321 36.276C101.528 38.483 98.411 40.696 94.862 40.322C93.3818 43.9535 92.354 47.7534 91.802 51.636C91.5 52.423 90.783 51.711 90.33 51.561C87.271 49.164 89.783 42.816 89.99 42.007C90.198 41.199 91.016 39.294 91.615 37.697C90.18 35.151 91.085 32.077 92.256 29.717C93.162 28.145 94.41 26.571 95.882 25.372C96.07 25.372 96.22 25.409 96.333 25.559ZM102.415 29.607C101.962 29.532 101.773 30.132 101.396 30.245C99.659 32.193 97.921 34.141 97.052 36.464C98.224 36.614 99.205 35.864 100.225 35.453C101.962 34.366 103.058 32.568 102.944 30.507C102.868 30.169 102.566 29.907 102.415 29.607Z" fill="#101815"/>
</g>
<defs>
<clipPath id="clip0_6_233">
<rect width="108" height="64" fill="white"/>
</clipPath>
</defs>
</svg>
