<svg width="104" height="64" viewBox="0 0 104 64" fill="none" xmlns="http://www.w3.org/2000/svg">
<g clip-path="url(#clip0_6_229)">
<path d="M95.757 31.9L101 45C99.455 44.792 97.91 44.53 96.338 44.296L93.385 37.058L90.351 43.698C88.861 43.463 87.398 43.385 85.909 43.203L91.234 31.744L86.404 20H90.874L93.578 26.562L96.475 20H101L95.757 31.9ZM82.874 20H78.82V42.708C80.144 42.787 81.523 42.838 82.875 42.994L82.874 20ZM75.314 42.448C71.618 42.213 67.92 42.006 64.141 41.927V20H68.279V38.23C70.652 38.28 73.024 38.463 75.314 38.567V42.448ZM59.725 28.88V32.786H54.07V41.666H49.987V20H61.575V23.906H54.07V28.881H59.726L59.725 28.88ZM43.033 23.905V41.874C41.653 41.874 40.247 41.874 38.895 41.926V23.906H34.618V20H47.337V23.906L43.033 23.905ZM30.15 32.994C28.33 32.994 26.177 32.994 24.632 33.074V38.88C27.06 38.723 29.488 38.542 31.942 38.463V42.213L20.494 43.073V20H31.94V23.906H24.63V29.166C26.23 29.166 28.686 29.088 30.148 29.088V32.995L30.15 32.994ZM7.22 30.807V44.453C5.8095 44.6045 4.4025 44.7868 3 45V20H6.946L12.326 34.193V20H16.464V43.385C15.002 43.62 13.512 43.698 11.939 43.905L7.22 30.808V30.807Z" fill="#E50311"/>
</g>
<defs>
<clipPath id="clip0_6_229">
<rect width="104" height="64" fill="white"/>
</clipPath>
</defs>
</svg>
