<svg width="98" height="64" viewBox="0 0 98 64" fill="none" xmlns="http://www.w3.org/2000/svg">
<g clip-path="url(#clip0_6_206)">
<g clip-path="url(#clip1_6_206)">
<path d="M41.6 32.84C41.6 37.444 37.999 40.836 33.579 40.836C29.159 40.836 25.557 37.444 25.557 32.84C25.557 28.204 29.159 24.844 33.579 24.844C37.999 24.844 41.601 28.204 41.601 32.84H41.6ZM38.09 32.84C38.09 29.963 36.002 27.995 33.579 27.995C31.156 27.995 29.069 29.963 29.069 32.84C29.069 35.688 31.156 37.685 33.579 37.685C36.002 37.685 38.09 35.685 38.09 32.84Z" fill="#EA4335"/>
<path d="M58.9059 32.84C58.9059 37.444 55.3039 40.836 50.8839 40.836C46.4639 40.836 42.8619 37.444 42.8619 32.84C42.8619 28.207 46.4639 24.844 50.8839 24.844C55.3039 24.844 58.9059 28.204 58.9059 32.84ZM55.3939 32.84C55.3939 29.963 53.3069 27.995 50.8839 27.995C48.4609 27.995 46.3739 29.963 46.3739 32.84C46.3739 35.688 48.4609 37.685 50.8839 37.685C53.3069 37.685 55.3939 35.685 55.3939 32.84Z" fill="#FBBC05"/>
<path d="M75.49 25.327V39.683C75.49 45.588 72.007 48 67.89 48C64.014 48 61.682 45.408 60.802 43.288L63.859 42.015C64.404 43.317 65.738 44.853 67.886 44.853C70.522 44.853 72.156 43.227 72.156 40.166V39.016H72.032C71.247 39.986 69.732 40.833 67.822 40.833C63.823 40.833 60.16 37.35 60.16 32.869C60.16 28.355 63.823 24.844 67.822 24.844C69.729 24.844 71.243 25.691 72.032 26.632H72.155V25.33H75.49V25.327ZM72.404 32.869C72.404 30.053 70.525 27.995 68.135 27.995C65.713 27.995 63.683 30.053 63.683 32.869C63.683 35.656 65.713 37.685 68.135 37.685C70.525 37.685 72.404 35.655 72.404 32.869Z" fill="#4285F4"/>
<path d="M80.988 16.912V40.346H77.563V16.912H80.988Z" fill="#34A853"/>
<path d="M94.335 35.472L97.06 37.289C96.18 38.589 94.06 40.833 90.398 40.833C85.855 40.833 82.463 37.321 82.463 32.837C82.463 28.081 85.883 24.84 90.005 24.84C94.155 24.84 96.184 28.142 96.847 29.927L97.212 30.836L86.522 35.263C87.34 36.867 88.613 37.685 90.398 37.685C92.186 37.685 93.426 36.805 94.335 35.472ZM85.945 32.595L93.091 29.628C92.698 28.628 91.515 27.933 90.124 27.933C88.339 27.933 85.855 29.509 85.945 32.595Z" fill="#EA4335"/>
<path d="M12.593 30.76V27.367H24.025C24.137 27.958 24.195 28.657 24.195 29.415C24.195 31.96 23.499 35.108 21.256 37.35C19.076 39.621 16.288 40.833 12.596 40.833C5.755 40.833 0 35.259 0 28.416C0 21.574 5.754 16 12.597 16C16.382 16 19.079 17.485 21.105 19.421L18.711 21.815C17.258 20.452 15.29 19.392 12.593 19.392C7.596 19.392 3.688 23.42 3.688 28.416C3.688 33.413 7.596 37.44 12.593 37.44C15.834 37.44 17.68 36.139 18.863 34.956C19.822 33.997 20.453 32.627 20.701 30.756L12.593 30.76Z" fill="#4285F4"/>
</g>
</g>
<defs>
<clipPath id="clip0_6_206">
<rect width="98" height="64" fill="white"/>
</clipPath>
<clipPath id="clip1_6_206">
<rect width="98" height="64" fill="white"/>
</clipPath>
</defs>
</svg>
