<svg width="108" height="64" viewBox="0 0 108 64" fill="none" xmlns="http://www.w3.org/2000/svg">
<g clip-path="url(#clip0_6_202)">
<path d="M25.831 28.463C25.787 23.828 29.618 21.601 29.79 21.495C27.634 18.345 24.285 17.912 23.092 17.863C20.242 17.572 17.529 19.543 16.08 19.543C14.63 19.543 12.4 17.903 10.035 17.952C6.925 17.996 4.057 19.759 2.453 22.542C-0.771998 28.136 1.631 36.442 4.782 40.989C6.324 43.212 8.153 45.717 10.566 45.624C12.889 45.531 13.764 44.122 16.566 44.122C19.366 44.122 20.158 45.624 22.61 45.58C25.106 45.531 26.688 43.309 28.217 41.078C29.975 38.493 30.705 35.996 30.749 35.864C30.691 35.842 25.884 33.999 25.831 28.463ZM21.223 14.85C22.504 13.3 23.366 11.147 23.132 9C21.289 9.075 19.058 10.228 17.737 11.78C16.553 13.149 15.515 15.34 15.797 17.444C17.843 17.603 19.947 16.396 21.223 14.85ZM41.99 33.018L39.869 39.448H37.143L44.083 19.017H47.265L54.233 39.447H51.414L49.231 33.018H41.99ZM48.688 30.955L46.691 25.075C46.236 23.74 45.935 22.529 45.631 21.345H45.573C45.2662 22.5875 44.9227 23.8207 44.543 25.043L42.546 30.951L48.688 30.955ZM56.301 29.563C56.2991 27.9656 56.2578 26.3684 56.177 24.773H58.572L58.695 27.293H58.753C59.844 25.503 61.572 24.443 63.967 24.443C67.515 24.443 70.179 27.443 70.179 31.9C70.179 37.176 66.967 39.779 63.511 39.779C61.571 39.779 59.875 38.93 58.996 37.476H58.938V45.447H56.301V29.563ZM58.934 33.473C58.934 33.871 58.992 34.229 59.058 34.565C59.544 36.412 61.148 37.689 63.061 37.689C65.88 37.689 67.519 35.387 67.519 32.019C67.519 29.077 65.973 26.568 63.154 26.568C61.338 26.568 59.641 27.871 59.12 29.872C59.027 30.204 58.939 30.602 58.939 30.964L58.934 33.473ZM72.936 29.563C72.9341 27.9656 72.8928 26.3684 72.812 24.773H75.207L75.331 27.293H75.388C76.479 25.503 78.208 24.443 80.602 24.443C84.15 24.443 86.814 27.443 86.814 31.9C86.814 37.176 83.602 39.779 80.147 39.779C78.207 39.779 76.51 38.93 75.631 37.476H75.574V45.447H72.936V29.563ZM75.574 33.473C75.574 33.871 75.631 34.229 75.697 34.565C76.183 36.412 77.787 37.689 79.701 37.689C82.519 37.689 84.159 35.387 84.159 32.019C84.159 29.077 82.612 26.568 79.793 26.568C77.977 26.568 76.281 27.871 75.759 29.872C75.666 30.204 75.579 30.602 75.579 30.964L75.574 33.473ZM89.576 17.925H92.244V39.443H89.576V17.925ZM97.608 32.595C97.666 36.2 99.972 37.689 102.636 37.689C104.545 37.689 105.698 37.357 106.697 36.933L107.152 38.842C106.215 39.266 104.607 39.752 102.274 39.752C97.758 39.752 95.059 36.782 95.059 32.356C95.059 27.928 97.666 24.442 101.938 24.442C106.728 24.442 108 28.653 108 31.352C108 31.901 107.943 32.32 107.908 32.594L97.608 32.595ZM105.429 30.685C105.46 28.989 104.731 26.351 101.731 26.351C99.031 26.351 97.851 28.839 97.639 30.686H105.429V30.685Z" fill="black"/>
</g>
<defs>
<clipPath id="clip0_6_202">
<rect width="108" height="64" fill="white"/>
</clipPath>
</defs>
</svg>
