<svg width="80" height="64" viewBox="0 0 80 64" fill="none" xmlns="http://www.w3.org/2000/svg">
<g clip-path="url(#clip0_6_237)">
<mask id="mask0_6_237" style="mask-type:luminance" maskUnits="userSpaceOnUse" x="0" y="16" width="80" height="32">
<path d="M0 16H79.387V48H0V16Z" fill="white"/>
</mask>
<g mask="url(#mask0_6_237)">
<path d="M11.133 24.517H4.441V26.707H11.133V24.517ZM11.133 28.774H4.441V30.964H11.133V28.774ZM11.133 33.034H4.441V35.224H11.133V33.034ZM11.133 37.292H4.441V39.482H11.133V37.292ZM15.574 41.55H0.12V43.741H15.572L15.574 41.55ZM15.574 45.81H0.12V48H15.572L15.574 45.81ZM15.452 20.258H0V22.448H15.452V20.258ZM15.452 16H0V18.19H15.452V16ZM60.287 26.707L59.496 24.517H48.423V26.707H60.287ZM55.115 30.965V29.748L55.541 30.965H67.8L68.255 29.748V30.965H74.947V28.775H62.387L61.717 30.631L61.047 28.774H48.423V30.964L55.115 30.965ZM55.115 33.034H48.423V35.224H55.115V33.034ZM66.33 35.223L67.1 33.034H56.332L57.138 35.223H66.33ZM55.115 37.292H48.423V39.482H55.115V37.292ZM55.114 41.55H44.104V43.741H55.114V41.55ZM55.114 45.81H44.104V48H55.114V45.81ZM64.796 39.482L65.587 37.292H57.852L58.636 39.482H64.796ZM63.313 43.741L64.072 41.551H59.374L60.18 43.741H63.313ZM61.677 47.995L61.81 47.998L62.596 45.81H60.902L61.677 47.995ZM43.982 20.26V22.448H58.765L58.034 20.26H43.982ZM43.982 16V18.19H57.305L56.515 16H43.982ZM74.946 26.707V24.517H63.815L63.023 26.707H74.946ZM74.946 33.034H68.254V35.224H74.946V33.034ZM74.946 37.292H68.254V39.482H74.946V37.292ZM79.387 41.55H68.254V43.741H79.387V41.55ZM79.387 45.81H68.254V48H79.387V45.81ZM65.275 20.26L64.543 22.448H79.264V20.26H65.275ZM66.856 16L66.066 18.19H79.264V16H66.856ZM28.774 24.517H22.082V26.707H28.774V24.517ZM39.177 30.965C39.177 30.965 40.607 29.84 41.063 28.775H22.082V30.965H39.177ZM22.082 33.034V35.223H41.062C40.607 34.16 39.177 33.034 39.177 33.034H22.082ZM28.774 37.292H22.082V39.482H28.774V37.292ZM41.975 26.707C41.975 26.707 42.401 25.551 42.401 24.517H35.283V26.707H41.975ZM35.283 37.292V39.482H42.401C42.401 38.449 41.975 37.292 41.975 37.292H35.283ZM17.643 20.26V22.448H42.218C42.218 22.448 41.93 20.761 41.429 20.26H17.643ZM41.429 43.741C41.929 43.239 42.218 41.551 42.218 41.551H17.643V43.741H41.429ZM17.643 16V18.19H39.663C39.663 18.19 37.412 16 34.433 16H17.643ZM34.433 47.998C37.412 47.998 39.663 45.81 39.663 45.81H17.643V47.998H34.433Z" fill="#5A87C5"/>
</g>
</g>
<defs>
<clipPath id="clip0_6_237">
<rect width="80" height="64" fill="white"/>
</clipPath>
</defs>
</svg>
