<svg width="105" height="64" viewBox="0 0 105 64" fill="none" xmlns="http://www.w3.org/2000/svg">
<g clip-path="url(#clip0_6_215)">
<path d="M22.378 28.896V38.866C22.378 39.0276 22.3139 39.1826 22.1997 39.297C22.0855 39.4114 21.9306 39.4758 21.769 39.476H18.622C18.4602 39.476 18.3051 39.4118 18.1907 39.2974C18.0763 39.183 18.012 39.0278 18.012 38.866V22.65C18.012 22.4882 18.0763 22.3331 18.1907 22.2187C18.3051 22.1043 18.4602 22.04 18.622 22.04H21.534C21.6142 22.0396 21.6937 22.0551 21.7679 22.0857C21.8421 22.1162 21.9095 22.1611 21.9662 22.2178C22.023 22.2745 22.0679 22.3419 22.0984 22.4161C22.1289 22.4903 22.1444 22.5698 22.144 22.65V24.934C22.144 24.934 23.184 21.676 26.274 21.676C26.274 21.676 29.33 21.306 30.573 24.699C30.573 24.699 31.613 21.676 34.77 21.676C34.77 21.676 39.465 21.397 39.465 26.256L39.501 28.93V38.9C39.5005 39.0615 39.436 39.2161 39.3217 39.3301C39.2073 39.444 39.0525 39.508 38.891 39.508H35.744C35.5824 39.508 35.4274 39.4439 35.313 39.3297C35.1987 39.2155 35.1343 39.0606 35.134 38.899L35.106 28.023C35.196 25.56 33.203 25.74 33.203 25.74C30.696 25.785 30.937 28.93 30.937 28.93V38.9C30.9365 39.0615 30.872 39.2161 30.7577 39.3301C30.6433 39.444 30.4885 39.508 30.327 39.508H27.181C27.0194 39.508 26.8644 39.4439 26.75 39.3297C26.6357 39.2155 26.5713 39.0606 26.571 38.899V28.27C26.571 28.27 26.755 25.718 24.516 25.718C24.516 25.718 22.3 25.428 22.378 28.898V28.896ZM103.5 28.866V38.836C103.501 38.9568 103.466 39.0752 103.399 39.1756C103.332 39.2761 103.236 39.3539 103.124 39.399C103.05 39.4297 102.971 39.4454 102.891 39.445L99.618 39.508C99.4562 39.508 99.3011 39.4438 99.1867 39.3294C99.0723 39.215 99.008 39.0598 99.008 38.898V28.27C99.008 28.27 99.192 25.718 96.954 25.718C96.954 25.718 94.815 25.613 94.815 29.614V38.866C94.815 39.0276 94.7509 39.1826 94.6367 39.297C94.5225 39.4114 94.3676 39.4758 94.206 39.476H91.06C90.8982 39.476 90.7431 39.4118 90.6287 39.2974C90.5143 39.183 90.45 39.0278 90.45 38.866V22.65C90.45 22.4882 90.5143 22.3331 90.6287 22.2187C90.7431 22.1043 90.8982 22.04 91.06 22.04H93.972C94.1338 22.04 94.289 22.1043 94.4034 22.2187C94.5178 22.3331 94.582 22.4882 94.582 22.65V24.934C94.582 24.934 95.622 21.676 98.712 21.676C98.712 21.676 102.021 21.174 103.136 24.636C103.136 24.636 103.5 25.349 103.5 28.866ZM80.777 21.61C76.753 21.61 73.49 25.002 73.49 30.71C73.49 35.737 76.009 39.811 80.777 39.811C85.277 39.811 88.064 35.737 88.064 30.711C88.064 25.103 84.802 21.61 80.777 21.61ZM83.317 30.913C83.317 33.063 83.049 34.204 83.049 34.204C82.666 36.476 81.017 36.48 80.774 36.467C80.511 36.477 78.848 36.454 78.504 34.204C78.504 34.204 78.235 33.062 78.235 30.914V30.555C78.235 28.405 78.505 27.265 78.505 27.265C78.848 25.015 80.512 24.99 80.774 25.001C81.017 24.989 82.666 24.991 83.049 27.264C83.049 27.264 83.317 28.406 83.317 30.555V30.913ZM71.663 24.913V22.586C71.6628 22.4246 71.5985 22.2698 71.4844 22.1557C71.3702 22.0415 71.2155 21.9773 71.054 21.977H60.652C60.4902 21.977 60.3351 22.0413 60.2207 22.1557C60.1063 22.2701 60.042 22.4252 60.042 22.587V24.895C60.042 25.0568 60.1063 25.212 60.2207 25.3264C60.3351 25.4408 60.4902 25.505 60.652 25.505H66.078L59.655 34.821C59.655 34.821 59.402 35.199 59.41 35.616V38.45C59.41 38.45 59.369 39.422 60.47 38.858C60.47 38.858 62.428 37.675 65.71 37.675C65.71 37.675 68.952 37.635 71.113 38.96C71.113 38.96 72.01 39.368 72.01 38.471V36.004C72.01 36.004 72.091 35.351 71.235 34.944C71.235 34.944 68.748 33.578 65.485 33.802L71.663 24.913ZM15.583 36.577L14.599 35.077C14.285 34.517 14.308 33.89 14.308 33.89V26.973C14.442 20.995 7.81503 21.51 7.81503 21.51C1.92503 21.51 1.05403 26.095 1.05403 26.095C0.808026 27.017 1.52303 27.039 1.52303 27.039L4.40103 27.331C4.40103 27.331 4.89203 27.443 5.07103 26.859C5.07103 26.859 5.45003 24.859 7.57003 24.859C9.87603 24.859 9.85203 26.839 9.85203 26.839V28.496C5.24803 28.65 3.11403 29.928 3.11403 29.928C0.270026 31.538 0.450026 34.74 0.450026 34.74C0.450026 39.956 5.42003 39.732 5.42003 39.732C8.59903 39.732 10.48 37.404 10.48 37.404C11.039 38.389 12.069 39.329 12.069 39.329C12.584 39.889 13.121 39.419 13.121 39.419L15.45 37.426C15.964 37.046 15.584 36.576 15.584 36.576L15.583 36.577ZM6.97103 36.512C5.47603 36.512 4.92003 35.027 5.16803 33.566C5.41703 32.106 6.70803 30.958 9.85303 30.992V31.88C9.96403 35.758 8.21603 36.512 6.97103 36.512ZM57.404 36.577L56.419 35.077C56.106 34.517 56.129 33.89 56.129 33.89V26.973C56.262 20.995 49.636 21.51 49.636 21.51C43.744 21.51 42.874 26.095 42.874 26.095C42.629 27.017 43.343 27.039 43.343 27.039L46.221 27.331C46.221 27.331 46.712 27.443 46.891 26.859C46.891 26.859 47.27 24.859 49.39 24.859C51.697 24.859 51.673 26.839 51.673 26.839V28.496C47.068 28.65 44.934 29.928 44.934 29.928C42.091 31.54 42.27 34.742 42.27 34.742C42.27 39.958 47.24 39.734 47.24 39.734C50.419 39.734 52.3 37.406 52.3 37.406C52.86 38.391 53.889 39.331 53.889 39.331C54.404 39.891 54.941 39.421 54.941 39.421L57.27 37.428C57.785 37.048 57.404 36.577 57.404 36.577ZM48.791 36.513C47.296 36.513 46.741 35.028 46.989 33.567C47.237 32.107 48.528 30.959 51.673 30.993V31.881C51.784 35.759 50.036 36.513 48.791 36.513Z" fill="#010101"/>
<path d="M65.329 49.669C65.329 49.669 65.065 50.127 65.389 50.229C65.389 50.229 65.754 50.372 66.209 49.949C66.209 49.949 69.533 47.046 69.613 41.761C69.613 41.761 69.637 41.101 69.373 40.921C69.373 40.921 68.332 39.999 64.588 40.28C64.588 40.28 61.325 40.5 59.544 42.082C59.544 42.082 59.384 42.222 59.384 42.402C59.384 42.402 59.345 42.79 60.324 42.622C60.324 42.622 63.587 42.162 65.529 42.402C65.529 42.402 66.53 42.522 66.81 42.862C66.81 42.862 67.27 43.242 67.03 44.504C67.03 44.504 66.37 47.707 65.329 49.669Z" fill="#FF9B00"/>
<path d="M64.6699 44.598C64.6699 44.598 65.1579 45.23 64.3719 45.774C64.3719 45.774 55.9719 52.494 41.8669 52.494C41.8669 52.494 27.3489 53.209 15.2259 42.194C15.2259 42.194 14.8009 41.821 15.0649 41.474C15.0649 41.474 15.3009 41.156 15.9109 41.503C15.9109 41.503 27.3149 48.609 42.2929 48.609C42.2929 48.609 52.7029 49.012 63.3829 44.445C63.3829 44.445 64.2319 44.004 64.6699 44.598Z" fill="#FF9B00"/>
</g>
<defs>
<clipPath id="clip0_6_215">
<rect width="105" height="64" fill="white"/>
</clipPath>
</defs>
</svg>
