<svg width="140" height="64" viewBox="0 0 140 64" fill="none" xmlns="http://www.w3.org/2000/svg">
<g clip-path="url(#clip0_6_221)">
<path d="M49.15 33.236L48.329 35.563H48.26C48.0493 34.783 47.7833 34.0224 47.462 33.281L43.058 22.214H38.745V39.854H41.597V28.968C41.597 28.283 41.597 27.508 41.574 26.548C41.552 26.07 41.506 25.705 41.484 25.431H41.552C41.688 26.115 41.848 26.617 41.962 26.937L47.256 39.807H49.264L54.513 26.823C54.627 26.526 54.741 25.933 54.855 25.431H54.924C54.855 26.731 54.81 27.895 54.787 28.603V39.784H57.822V22.17H53.669L49.15 33.236ZM60.697 27.143H63.663V39.785H60.697V27.143ZM62.203 21.803C61.701 21.803 61.29 21.986 60.948 22.305C60.7776 22.4612 60.6426 22.652 60.552 22.8647C60.4615 23.0774 60.4175 23.3069 60.423 23.538C60.423 24.018 60.606 24.428 60.948 24.748C61.29 25.068 61.701 25.226 62.203 25.226C62.6671 25.2322 63.116 25.0609 63.458 24.747C63.8 24.427 63.983 24.017 63.983 23.537C63.983 23.059 63.8 22.647 63.458 22.305C63.161 21.986 62.728 21.803 62.203 21.803ZM74.183 27.029C73.6353 26.912 73.0771 26.8507 72.517 26.846C71.171 26.846 69.939 27.143 68.912 27.736C67.885 28.33 67.063 29.151 66.539 30.178C65.991 31.228 65.717 32.438 65.717 33.829C65.717 35.039 65.991 36.111 66.516 37.092C67.041 38.052 67.771 38.827 68.752 39.352C69.688 39.876 70.782 40.15 72.015 40.15C73.43 40.15 74.639 39.853 75.598 39.306L75.621 39.283V36.545L75.507 36.635C75.073 36.955 74.571 37.229 74.069 37.389C73.544 37.571 73.065 37.663 72.654 37.663C71.468 37.663 70.532 37.321 69.87 36.568C69.186 35.838 68.843 34.833 68.843 33.578C68.843 32.278 69.186 31.251 69.893 30.498C70.6 29.745 71.536 29.358 72.677 29.358C73.635 29.358 74.617 29.678 75.507 30.315L75.621 30.406V27.508L75.598 27.485C75.21 27.325 74.776 27.143 74.183 27.029ZM83.973 26.939C83.2414 26.9323 82.5306 27.1821 81.964 27.645C81.462 28.055 81.12 28.649 80.824 29.357H80.8V27.143H77.833V39.785H80.8V33.327C80.8 32.232 81.029 31.319 81.53 30.657C82.0327 29.973 82.672 29.631 83.448 29.631C83.721 29.631 83.995 29.699 84.338 29.745C84.657 29.835 84.885 29.927 85.045 30.041L85.159 30.132V27.166L85.09 27.143C84.885 27.006 84.475 26.939 83.973 26.939ZM92.05 26.868C89.974 26.868 88.308 27.484 87.144 28.694C85.958 29.904 85.387 31.569 85.387 33.668C85.387 35.631 85.98 37.228 87.121 38.392C88.262 39.533 89.814 40.126 91.754 40.126C93.784 40.126 95.404 39.51 96.568 38.278C97.755 37.046 98.326 35.403 98.326 33.372C98.326 31.364 97.778 29.766 96.66 28.602C95.587 27.439 94.013 26.868 92.05 26.868ZM94.424 36.589C93.876 37.297 93.009 37.639 91.936 37.639C90.863 37.639 89.996 37.297 89.38 36.544C88.764 35.836 88.468 34.809 88.468 33.509C88.468 32.162 88.788 31.136 89.38 30.405C89.996 29.675 90.8403 29.31 91.913 29.31C92.963 29.31 93.785 29.652 94.378 30.36C94.971 31.067 95.291 32.094 95.291 33.44C95.245 34.81 94.994 35.88 94.424 36.589ZM104.943 32.392C104.008 32.004 103.414 31.707 103.14 31.456C102.912 31.228 102.798 30.9087 102.798 30.498C102.798 30.155 102.935 29.813 103.277 29.585C103.62 29.357 104.008 29.242 104.578 29.242C105.08 29.242 105.605 29.334 106.107 29.472C106.609 29.608 107.065 29.813 107.43 30.087L107.545 30.178V27.394L107.476 27.371C107.04 27.2026 106.589 27.0727 106.13 26.983C105.648 26.8977 105.159 26.8518 104.669 26.846C103.255 26.846 102.091 27.189 101.178 27.942C100.265 28.649 99.832 29.608 99.832 30.726C99.832 31.319 99.922 31.844 100.128 32.278C100.334 32.712 100.63 33.122 101.041 33.464C101.452 33.784 102.045 34.149 102.867 34.491C103.551 34.788 104.076 35.016 104.395 35.198C104.648 35.3473 104.879 35.5318 105.08 35.746C105.194 35.928 105.263 36.156 105.263 36.453C105.263 37.298 104.624 37.708 103.323 37.708C102.821 37.708 102.296 37.618 101.68 37.412C101.086 37.2137 100.525 36.9293 100.014 36.568L99.9 36.476V39.374L99.969 39.397C100.402 39.602 100.927 39.739 101.566 39.899C102.205 40.013 102.775 40.104 103.277 40.104C104.806 40.104 106.061 39.762 106.951 39.009C107.864 38.279 108.343 37.343 108.343 36.134C108.343 35.29 108.115 34.537 107.613 33.966C106.817 33.2957 105.915 32.7636 104.943 32.392ZM116.17 26.869C114.094 26.869 112.428 27.485 111.264 28.695C110.1 29.905 109.507 31.57 109.507 33.669C109.507 35.632 110.1 37.229 111.241 38.393C112.382 39.534 113.934 40.127 115.873 40.127C117.904 40.127 119.525 39.511 120.688 38.279C121.875 37.047 122.445 35.404 122.445 33.373C122.445 31.365 121.898 29.767 120.78 28.603C119.707 27.44 118.133 26.869 116.17 26.869ZM118.52 36.59C117.973 37.298 117.106 37.64 116.033 37.64C114.938 37.64 114.094 37.298 113.477 36.545C112.861 35.837 112.565 34.81 112.565 33.51C112.565 32.163 112.884 31.137 113.477 30.406C114.094 29.676 114.938 29.311 116.01 29.311C117.037 29.311 117.882 29.653 118.475 30.361C119.068 31.068 119.388 32.095 119.388 33.441C119.388 34.811 119.091 35.881 118.52 36.59ZM138.305 29.586V27.144H135.315V23.402L135.224 23.425L132.395 24.269L132.326 24.292V27.144H127.854V25.547C127.854 24.817 128.036 24.247 128.356 23.881C128.675 23.516 129.154 23.333 129.748 23.333C130.158 23.333 130.592 23.425 131.071 23.63L131.185 23.7V21.12L131.117 21.097C130.706 20.96 130.158 20.869 129.451 20.869C128.561 20.869 127.785 21.074 127.078 21.417C126.39 21.7854 125.826 22.3491 125.457 23.037C125.07 23.721 124.864 24.497 124.864 25.387V27.144H122.788V29.564H124.864V39.786H127.854V29.586H132.326V36.089C132.326 38.759 133.581 40.105 136.091 40.105C136.502 40.105 136.936 40.037 137.346 39.969C137.669 39.907 137.983 39.8073 138.282 39.672L138.305 39.649V37.207L138.191 37.299C138.002 37.4243 137.794 37.5166 137.574 37.572C137.381 37.632 137.183 37.6627 136.981 37.664C136.388 37.664 135.977 37.527 135.68 37.184C135.407 36.865 135.27 36.34 135.27 35.564V29.586H138.305Z" fill="#737373"/>
<path d="M0.5 16.281H14.488V30.271H0.5V16.281Z" fill="#F25022"/>
<path d="M15.949 16.281H29.937V30.271H15.949V16.281Z" fill="#7FBA00"/>
<path d="M0.5 31.73H14.488V45.718H0.5V31.73Z" fill="#01A4EF"/>
<path d="M15.949 31.73H29.937V45.718H15.949V31.73Z" fill="#FEB801"/>
</g>
<defs>
<clipPath id="clip0_6_221">
<rect width="140" height="64" fill="white"/>
</clipPath>
</defs>
</svg>
