<svg width="39" height="44" viewBox="0 0 39 44" fill="none" xmlns="http://www.w3.org/2000/svg">
<path d="M8.82098 0.563843L0.563477 36.4063L29.656 43.1098L37.9142 7.26734L8.82098 0.563843Z" fill="white"/>
<path d="M29.6567 43.6732C29.6142 43.6733 29.5719 43.6683 29.5307 43.6582L0.437427 36.9554C0.365281 36.939 0.297091 36.9085 0.236762 36.8656C0.176434 36.8228 0.125153 36.7684 0.085859 36.7057C0.0465646 36.643 0.0200276 36.5732 0.00777027 36.5002C-0.0044871 36.4272 -0.00222432 36.3525 0.0144279 36.2804L8.27268 0.437939C8.29744 0.329261 8.35394 0.230391 8.43499 0.153877C8.51604 0.0773631 8.618 0.0266552 8.72793 0.00818874C8.80089 -0.00485034 8.87578 -0.00229412 8.94768 0.0156889L38.0409 6.71844C38.1131 6.73489 38.1813 6.76542 38.2416 6.80827C38.3019 6.85112 38.3532 6.90546 38.3925 6.96816C38.4318 7.03087 38.4583 7.10071 38.4706 7.17368C38.4828 7.24666 38.4806 7.32134 38.4639 7.39344L30.2057 43.2359C30.1773 43.3603 30.1075 43.4712 30.0077 43.5507C29.908 43.6301 29.7842 43.6733 29.6567 43.6732ZM1.23918 35.9842L29.2344 42.4342L37.2392 7.68969L9.24393 1.23969L1.23918 35.9842Z" fill="#1D1D1B"/>
<path d="M26.4346 12.6487L4.07711 7.49768L1.25562 19.7384L23.6131 24.8894L26.4346 12.6487Z" fill="#06B6D4"/>
<path d="M23.9012 25.4639C23.8586 25.4644 23.816 25.4596 23.7745 25.4497L1.12822 20.2859C1.05608 20.2695 0.987886 20.239 0.927557 20.1961C0.867229 20.1533 0.815948 20.0989 0.776654 20.0362C0.73736 19.9735 0.710824 19.9037 0.698567 19.8307C0.686309 19.7577 0.688571 19.683 0.705223 19.6109L3.52822 7.37019C3.54476 7.29811 3.57535 7.23 3.61823 7.16975C3.66112 7.10951 3.71547 7.05831 3.77816 7.01909C3.84086 6.97987 3.91067 6.9534 3.98361 6.94119C4.05654 6.92898 4.13117 6.93127 4.20322 6.94794L26.8472 12.1109C26.9194 12.1274 26.9876 12.1579 27.0479 12.2008C27.1082 12.2436 27.1595 12.298 27.1988 12.3607C27.2381 12.4234 27.2646 12.4932 27.2769 12.5662C27.2891 12.6392 27.2869 12.7138 27.2702 12.7859L24.4495 25.0274C24.421 25.1515 24.3512 25.2622 24.2516 25.3415C24.152 25.4208 24.0285 25.4639 23.9012 25.4639ZM1.93147 19.3162L23.4782 24.2257L26.0455 13.0822L4.49872 8.17194L1.93147 19.3162Z" fill="#06B6D4"/>
<path d="M17.2531 28.5861C17.2105 28.5859 17.168 28.5811 17.1264 28.5719L7.71163 26.4029C7.56603 26.3694 7.4397 26.2794 7.36044 26.1527C7.28119 26.0261 7.25549 25.8731 7.28901 25.7275C7.32252 25.5819 7.41251 25.4556 7.53917 25.3763C7.66582 25.2971 7.81878 25.2714 7.96438 25.3049L17.3776 27.4746C17.5131 27.5049 17.6327 27.5841 17.7132 27.6972C17.7938 27.8102 17.8297 27.9491 17.8141 28.087C17.7985 28.225 17.7324 28.3522 17.6285 28.4444C17.5247 28.5365 17.3905 28.587 17.2516 28.5861H17.2531ZM21.0781 33.1791C21.0354 33.1793 20.9929 33.1743 20.9514 33.1641L6.90313 29.9279C6.83109 29.9113 6.76301 29.8807 6.7028 29.8378C6.64259 29.7949 6.59142 29.7405 6.55221 29.6778C6.513 29.6152 6.48652 29.5454 6.47428 29.4725C6.46204 29.3995 6.46429 29.3249 6.48088 29.2529C6.49748 29.1808 6.5281 29.1128 6.571 29.0526C6.61391 28.9923 6.66825 28.9412 6.73093 28.902C6.79361 28.8628 6.8634 28.8363 6.93631 28.824C7.00922 28.8118 7.08383 28.814 7.15588 28.8306L21.2041 32.0669C21.3391 32.0978 21.4579 32.1774 21.5379 32.2903C21.6179 32.4033 21.6535 32.5417 21.6379 32.6793C21.6223 32.8168 21.5566 32.9438 21.4534 33.036C21.3501 33.1282 21.2166 33.1792 21.0781 33.1791ZM20.2621 36.7049C20.2192 36.7047 20.1765 36.6999 20.1346 36.6906L6.08713 33.4536C5.94153 33.4201 5.8152 33.3301 5.73594 33.2035C5.65669 33.0768 5.63099 32.9239 5.66451 32.7783C5.69802 32.6327 5.78801 32.5063 5.91467 32.4271C6.04132 32.3478 6.19428 32.3221 6.33988 32.3556L20.3881 35.5934C20.5223 35.625 20.6403 35.7047 20.7196 35.8174C20.799 35.9302 20.8342 36.0681 20.8187 36.2051C20.8032 36.3421 20.7379 36.4686 20.6354 36.5607C20.5328 36.6528 20.4 36.7041 20.2621 36.7049Z" fill="#1D1D1B"/>
<path d="M18.7457 19.5929L21.4442 14.1914L23.0229 14.5559L19.2354 21.3426L18.1719 21.0966L18.7457 19.5929ZM18.8867 13.6004L18.9399 19.6379L18.8064 21.2429L17.7369 20.9969L17.3229 13.2396L18.8867 13.6004ZM14.0657 18.1334C14.0957 18.0039 14.1114 17.8831 14.1129 17.7711C14.1143 17.656 14.0862 17.5424 14.0312 17.4411C13.9628 17.313 13.8741 17.1968 13.7687 17.0969C13.6189 16.948 13.4569 16.812 13.2842 16.6904C13.0446 16.5181 12.8107 16.338 12.5829 16.1504C12.3673 15.97 12.1725 15.766 12.0024 15.5421C11.8413 15.3302 11.7236 15.0886 11.6559 14.8311C11.5934 14.5706 11.5982 14.2839 11.6702 13.9709C11.7407 13.6649 11.8599 13.3996 12.0279 13.1751C12.1989 12.9511 12.4079 12.7749 12.6549 12.6464C12.9024 12.5144 13.1757 12.4319 13.4747 12.3989C13.7989 12.3684 14.1259 12.3922 14.4422 12.4694C14.9087 12.5774 15.2894 12.7671 15.5844 13.0386C15.8829 13.3106 16.0867 13.6364 16.1957 14.0159C16.3077 14.3964 16.3134 14.8046 16.2129 15.2406L14.7542 14.9039C14.8022 14.6979 14.8139 14.5096 14.7894 14.3391C14.7748 14.1768 14.7092 14.0232 14.6019 13.9004C14.4959 13.7814 14.3429 13.6989 14.1429 13.6529C13.9817 13.6098 13.8116 13.6124 13.6517 13.6604C13.5166 13.705 13.3982 13.7894 13.3119 13.9026C13.2215 14.0244 13.1586 14.1644 13.1274 14.3129C13.0995 14.4267 13.1032 14.546 13.1379 14.6579C13.1759 14.7644 13.2379 14.8679 13.3239 14.9684C13.4099 15.0659 13.5149 15.1656 13.6389 15.2676C13.7664 15.3706 13.9072 15.4749 14.0612 15.5804C14.3612 15.7869 14.6194 15.9974 14.8359 16.2119C15.0539 16.4239 15.2254 16.6459 15.3504 16.8779C15.4764 17.1074 15.5552 17.3519 15.5867 17.6114C15.6159 17.8957 15.5956 18.183 15.5267 18.4604C15.4567 18.7634 15.3397 19.0276 15.1757 19.2531C15.0178 19.4743 14.8119 19.6569 14.5734 19.7871C14.3334 19.9176 14.0604 19.9986 13.7544 20.0301C13.4287 20.0607 13.1001 20.0363 12.7824 19.9581C12.4586 19.8852 12.1476 19.7638 11.8599 19.5981C11.5906 19.4391 11.3549 19.2289 11.1662 18.9794C10.9815 18.7214 10.8577 18.425 10.8039 18.1124C10.7439 17.7789 10.7614 17.4056 10.8564 16.9926L12.3204 17.3309C12.2694 17.5504 12.2477 17.7436 12.2552 17.9106C12.2627 18.0736 12.3007 18.2121 12.3692 18.3261C12.4412 18.4398 12.5378 18.536 12.6519 18.6074C12.7749 18.6814 12.9214 18.7379 13.0914 18.7769C13.2844 18.8219 13.4462 18.8206 13.5767 18.7731C13.7054 18.7304 13.817 18.6473 13.8947 18.5361C13.9727 18.4241 14.0299 18.2901 14.0664 18.1341M8.6882 16.3559L10.1409 16.6911C9.99545 17.2326 9.7792 17.6684 9.4922 17.9984C9.21747 18.3185 8.85087 18.5463 8.4422 18.6509C8.0312 18.7594 7.56595 18.7536 7.04645 18.6336C6.64295 18.5406 6.3002 18.3914 6.0182 18.1859C5.73943 17.9802 5.51307 17.7117 5.35745 17.4021C5.19845 17.0881 5.1067 16.7249 5.0822 16.3124C5.0627 15.8974 5.1112 15.4369 5.2277 14.9309L5.5127 13.6964C5.6297 13.1904 5.79145 12.7559 5.99795 12.3929C6.20795 12.0314 6.45295 11.7444 6.73295 11.5319C7.01795 11.3169 7.33245 11.1789 7.67645 11.1179C8.02445 11.0544 8.39645 11.0684 8.79245 11.1599C9.32195 11.2824 9.74195 11.4846 10.0524 11.7666C10.3624 12.0486 10.5699 12.4036 10.6749 12.8316C10.7839 13.2566 10.7947 13.7484 10.7072 14.3069L9.24395 13.9694C9.31745 13.6209 9.3417 13.3404 9.3167 13.1279C9.2967 12.9129 9.22245 12.7484 9.09395 12.6344C8.96645 12.5174 8.77295 12.4289 8.51345 12.3689C8.3422 12.3243 8.16284 12.3207 7.98995 12.3584C7.82848 12.3961 7.68212 12.4815 7.56995 12.6036C7.44545 12.7326 7.33345 12.9136 7.23395 13.1466C7.13795 13.3806 7.0497 13.6726 6.9692 14.0226L6.68195 15.2661C6.61005 15.5595 6.56041 15.8578 6.53345 16.1586C6.51495 16.4061 6.52795 16.6159 6.57245 16.7879C6.61745 16.9594 6.69995 17.0959 6.81995 17.1974C6.94395 17.3004 7.11245 17.3761 7.32545 17.4246C7.57145 17.4816 7.77795 17.4909 7.94495 17.4524C8.11495 17.4144 8.2587 17.3089 8.3762 17.1359C8.4937 16.9629 8.5982 16.7029 8.6882 16.3559Z" fill="white"/>
</svg>
