<svg width="39" height="44" viewBox="0 0 39 44" fill="none" xmlns="http://www.w3.org/2000/svg">
<path d="M8.81989 0.562378L0.56189 36.4054L29.6549 43.1084L37.9129 7.26538L8.81989 0.562378Z" fill="white"/>
<path d="M29.656 43.6714C29.6132 43.6718 29.5705 43.6668 29.529 43.6564L0.436977 36.9534C0.328722 36.9278 0.230328 36.871 0.15392 36.7902C0.077513 36.7093 0.0264342 36.6079 0.00697826 36.4984C-0.00427471 36.4252 -0.00190148 36.3507 0.0139782 36.2784L8.27198 0.43638C8.30555 0.290923 8.39552 0.164755 8.5221 0.0856186C8.64868 0.00648259 8.80151 -0.0191417 8.94698 0.01438L38.041 6.71738C38.1131 6.73389 38.1812 6.76446 38.2415 6.80733C38.3018 6.85019 38.3531 6.90453 38.3924 6.96721C38.4317 7.0299 38.4582 7.09972 38.4705 7.17267C38.4828 7.24562 38.4806 7.32028 38.464 7.39238L30.206 43.2344C30.1772 43.3587 30.1072 43.4696 30.0073 43.549C29.9074 43.6283 29.7836 43.6715 29.656 43.6714ZM1.23698 35.9824L29.232 42.4324L37.237 7.68838L9.24198 1.23838L1.23698 35.9824Z" fill="#1D1D1B"/>
<path d="M30.587 13.6034L4.07598 7.49536L1.25598 19.7374L27.766 25.8454L30.587 13.6034Z" fill="#2267C3"/>
<path d="M27.767 26.4074C27.7242 26.4082 27.6815 26.4035 27.6399 26.3934L1.12695 20.2844C0.981448 20.2508 0.855206 20.1609 0.77591 20.0344C0.696613 19.9078 0.670734 19.755 0.703951 19.6094L3.52695 7.36943C3.56078 7.22407 3.65075 7.09799 3.77722 7.01874C3.90369 6.93948 4.05638 6.91349 4.20195 6.94643L30.712 13.0544C30.8575 13.088 30.9837 13.1779 31.063 13.3045C31.1423 13.431 31.1682 13.5838 31.135 13.7294L28.315 25.9704C28.2869 26.0949 28.2172 26.2061 28.1174 26.2856C28.0175 26.3651 27.8946 26.408 27.767 26.4074ZM1.92895 19.3144L27.342 25.1694L29.91 14.0254L4.49695 8.17043L1.92895 19.3144Z" fill="#2267C3"/>
<path d="M4.0769 16.9894L5.5769 10.4924L7.5759 10.9524C8.11476 11.0664 8.61353 11.3218 9.0209 11.6924C9.4109 12.0524 9.6899 12.5184 9.8229 13.0334C9.9659 13.5924 9.9679 14.1784 9.8289 14.7384L9.7589 15.0384C9.64018 15.5996 9.38537 16.1229 9.0169 16.5624C8.67371 16.966 8.22124 17.2619 7.7139 17.4144C7.18608 17.5696 6.62674 17.5834 6.0919 17.4544L4.0769 16.9894ZM6.6639 11.8844L5.6639 16.2224L6.3109 16.3724C6.53377 16.4387 6.76905 16.4518 6.99791 16.4108C7.22677 16.3698 7.44286 16.2759 7.6289 16.1364C8.0309 15.7784 8.2999 15.2954 8.3919 14.7654L8.4669 14.4214C8.6281 13.8976 8.60516 13.3344 8.4019 12.8254C8.29593 12.6184 8.14264 12.4392 7.95448 12.3025C7.76631 12.1657 7.54857 12.0753 7.3189 12.0384L6.6639 11.8844ZM16.0689 16.4864C15.9484 17.0686 15.6997 17.6165 15.3409 18.0904C15.0297 18.5031 14.6025 18.8137 14.1139 18.9824C13.6169 19.1383 13.0874 19.1593 12.5796 19.0433C12.0718 18.9274 11.604 18.6786 11.2239 18.3224C10.8567 17.9574 10.604 17.493 10.4969 16.9864C10.3759 16.4119 10.3861 15.8175 10.5269 15.2474L10.6009 14.9254C10.7229 14.3413 10.974 13.7919 11.3359 13.3174C11.6504 12.9037 12.08 12.592 12.5709 12.4214C13.0681 12.2666 13.5974 12.2466 14.1048 12.3634C14.6122 12.4803 15.0795 12.7298 15.4589 13.0864C15.8259 13.4544 16.0759 13.9224 16.1769 14.4324C16.295 15.0161 16.2814 15.6187 16.1369 16.1964L16.0689 16.4864ZM14.7789 15.8794C14.9396 15.3448 14.9368 14.7744 14.7709 14.2414C14.689 14.0501 14.5633 13.8807 14.4039 13.7469C14.2444 13.6131 14.0558 13.5187 13.8531 13.4713C13.6504 13.4238 13.4395 13.4248 13.2372 13.474C13.035 13.5232 12.8472 13.6192 12.6889 13.7544C12.308 14.1558 12.0556 14.6617 11.9639 15.2074L11.8889 15.5234C11.7325 16.0557 11.736 16.6221 11.8989 17.1524C11.9768 17.3472 12.1003 17.5205 12.259 17.6578C12.4177 17.795 12.6069 17.8922 12.8109 17.9413C13.0149 17.9904 13.2277 17.9898 13.4314 17.9397C13.6351 17.8897 13.8239 17.7915 13.9819 17.6534C14.3599 17.2494 14.6119 16.7424 14.7029 16.1964L14.7789 15.8794ZM21.9249 18.8224C21.8438 19.1338 21.6996 19.4252 21.5013 19.6786C21.303 19.932 21.0547 20.1419 20.7719 20.2954C20.1559 20.5954 19.4509 20.6594 18.7909 20.4744C18.4171 20.4066 18.0636 20.2548 17.757 20.0305C17.4504 19.8062 17.1987 19.5152 17.0209 19.1794C16.6626 18.4038 16.5969 17.5247 16.8359 16.7044L16.9269 16.3074C17.0469 15.7374 17.2889 15.1994 17.6369 14.7324C17.9409 14.3274 18.3569 14.0224 18.8339 13.8534C19.4014 13.6859 20.0055 13.6883 20.5716 13.8601C21.1378 14.0319 21.6413 14.3658 22.0199 14.8204C22.3948 15.3685 22.5402 16.0415 22.4249 16.6954L21.0869 16.3884C21.1647 16.0512 21.1148 15.6971 20.9469 15.3944C20.7363 15.1266 20.431 14.9498 20.0939 14.9004C19.9028 14.8436 19.7003 14.8365 19.5057 14.8799C19.3111 14.9233 19.1308 15.0158 18.9819 15.1484C18.6219 15.5424 18.3849 16.0324 18.2979 16.5584L18.1849 17.0494C18.0233 17.5733 18.0108 18.1319 18.1489 18.6624C18.2221 18.8499 18.3432 19.0148 18.5 19.1408C18.6569 19.2668 18.8441 19.3494 19.0429 19.3804C19.3709 19.4844 19.7249 19.4584 20.0339 19.3094C20.3136 19.1251 20.5113 18.84 20.5859 18.5134L21.9249 18.8224ZM25.6129 17.4684L27.3469 15.5084L28.8869 15.8634L26.2519 18.6494L27.4379 22.3714L25.8809 22.0134L25.1559 19.4494L23.3819 21.4374L21.8269 21.0784L24.5269 18.2504L23.3769 14.5924L24.9169 14.9474L25.6129 17.4684Z" fill="white"/>
<path d="M17.2519 28.5844C17.2092 28.5843 17.1666 28.5796 17.1249 28.5704L7.70991 26.4004C7.63668 26.385 7.56727 26.3551 7.50572 26.3125C7.44417 26.27 7.39173 26.2156 7.35146 26.1525C7.31119 26.0894 7.28389 26.0189 7.27117 25.9452C7.25845 25.8714 7.26057 25.7959 7.27738 25.723C7.2942 25.6501 7.32539 25.5812 7.36912 25.5205C7.41285 25.4598 7.46825 25.4084 7.53208 25.3693C7.59591 25.3302 7.66689 25.3043 7.74086 25.293C7.81483 25.2817 7.89032 25.2852 7.96291 25.3034L17.3759 27.4734C17.51 27.505 17.6279 27.5847 17.7072 27.6974C17.7866 27.8101 17.8218 27.9479 17.8063 28.0849C17.7907 28.2218 17.7255 28.3483 17.623 28.4403C17.5205 28.5324 17.3877 28.5837 17.2499 28.5844H17.2519ZM21.0769 33.1774C21.0341 33.1779 20.9914 33.1728 20.9499 33.1624L6.90191 29.9264C6.82988 29.9099 6.76181 29.8793 6.7016 29.8364C6.64138 29.7936 6.5902 29.7393 6.55097 29.6767C6.51173 29.614 6.48522 29.5443 6.47294 29.4714C6.46067 29.3985 6.46286 29.3239 6.47941 29.2519C6.49596 29.1799 6.52653 29.1118 6.56938 29.0516C6.61223 28.9914 6.66652 28.9402 6.72916 28.901C6.79179 28.8617 6.86154 28.8352 6.93442 28.8229C7.00729 28.8107 7.08188 28.8129 7.15391 28.8294L21.2029 32.0654C21.338 32.0961 21.4571 32.1756 21.5373 32.2885C21.6174 32.4015 21.6532 32.5401 21.6376 32.6778C21.622 32.8155 21.5561 32.9426 21.4527 33.0347C21.3493 33.1269 21.2155 33.1777 21.0769 33.1774ZM20.2609 36.7034C20.2179 36.7033 20.1749 36.6987 20.1329 36.6894L6.08691 33.4524C6.01481 33.4358 5.9467 33.4051 5.88645 33.3622C5.8262 33.3193 5.77499 33.2649 5.73576 33.2022C5.69653 33.1394 5.67003 33.0696 5.65779 32.9966C5.64555 32.9237 5.6478 32.849 5.66441 32.7769C5.68102 32.7048 5.71167 32.6367 5.75461 32.5764C5.79755 32.5162 5.85193 32.465 5.91466 32.4258C5.97738 32.3865 6.04722 32.36 6.12019 32.3478C6.19315 32.3355 6.26781 32.3378 6.33991 32.3544L20.3879 35.5924C20.522 35.624 20.6399 35.7037 20.7192 35.8164C20.7986 35.9291 20.8338 36.0669 20.8183 36.2039C20.8027 36.3408 20.7375 36.4673 20.635 36.5593C20.5325 36.6514 20.3987 36.7027 20.2609 36.7034Z" fill="#1D1D1B"/>
</svg>
