<svg width="45" height="44" viewBox="0 0 45 44" fill="none" xmlns="http://www.w3.org/2000/svg">
<path d="M43.91 8.33902L7.94699 0.650024L2.495 26.152L38.46 33.84L43.91 8.33902Z" fill="white" stroke="#1D1D1B" stroke-width="1.3" stroke-linecap="round" stroke-linejoin="round"/>
<path d="M28.5859 14.9001C29.3647 14.9001 30.1116 14.5907 30.6623 14.04C31.213 13.4893 31.5224 12.7424 31.5224 11.9636C31.5224 11.1848 31.213 10.4379 30.6623 9.88718C30.1116 9.33648 29.3647 9.0271 28.5859 9.0271C27.8071 9.0271 27.0602 9.33648 26.5095 9.88718C25.9588 10.4379 25.6494 11.1848 25.6494 11.9636C25.6494 12.7424 25.9588 13.4893 26.5095 14.04C27.0602 14.5907 27.8071 14.9001 28.5859 14.9001Z" fill="white" stroke="#F59E0B" stroke-width="1.3" stroke-linecap="round" stroke-linejoin="round"/>
<path d="M16.168 29.0761L38.458 33.8401L39.123 30.7371L31.681 17.9031L16.168 29.0761Z" fill="white" stroke="#16A34A" stroke-width="1.3" stroke-linecap="round" stroke-linejoin="round"/>
<path d="M19.596 11.9281L2.97602 23.8981L2.49402 26.1531L31.43 32.3381L19.596 11.9281Z" fill="white" stroke="#16A34A" stroke-width="1.3" stroke-linecap="round" stroke-linejoin="round"/>
<path d="M38.46 33.8401L2.49402 26.1531L0.650024 34.7791L36.615 42.4671L38.46 33.8401Z" fill="#1D1D1B" stroke="#1D1D1B" stroke-width="1.3" stroke-linecap="round" stroke-linejoin="round"/>
<path d="M12.6299 29.796L13.8079 30.046L12.9619 34.006C12.8951 34.3441 12.7398 34.6585 12.5119 34.917C12.2926 35.1589 12.0083 35.3325 11.6929 35.417C11.3529 35.507 10.9949 35.512 10.6519 35.433C10.1323 35.3549 9.66185 35.0822 9.33592 34.67C9.19892 34.4642 9.1079 34.2313 9.06907 33.9871C9.03024 33.7429 9.04452 33.4932 9.11092 33.255L10.2979 33.51C10.2335 33.7271 10.2487 33.9601 10.3409 34.167C10.3988 34.2541 10.4748 34.3278 10.5636 34.383C10.6525 34.4382 10.7522 34.4737 10.8559 34.487C10.9565 34.5123 11.0614 34.5149 11.1631 34.4947C11.2648 34.4744 11.3607 34.4319 11.4439 34.37C11.6289 34.212 11.7499 33.993 11.7839 33.753L12.6299 29.796ZM15.2029 34.218L14.7699 36.235L13.5929 35.984L14.8149 30.267L17.0439 30.744C17.4368 30.8177 17.8074 30.9809 18.1269 31.221C18.4069 31.431 18.6189 31.721 18.7359 32.051C18.8499 32.387 18.8679 32.749 18.7879 33.095C18.7456 33.3471 18.6464 33.5863 18.4977 33.7942C18.349 34.0022 18.1548 34.1735 17.9299 34.295C17.3999 34.544 16.7979 34.595 16.2329 34.44L15.2029 34.218ZM15.4069 33.263L16.4569 33.488C16.7099 33.561 16.9809 33.537 17.2169 33.42C17.3182 33.3575 17.4046 33.2737 17.4703 33.1744C17.5359 33.0751 17.5791 32.9627 17.5969 32.845C17.6611 32.5968 17.6245 32.3333 17.4949 32.112C17.424 32.0045 17.3319 31.9125 17.2243 31.8417C17.1166 31.7709 16.9957 31.7227 16.8689 31.7L15.7889 31.469L15.4069 33.263ZM22.7509 35.346L20.4889 34.863L20.1619 36.393L22.8159 36.961L22.6139 37.907L18.7819 37.088L20.0039 31.372L23.8289 32.189L23.6259 33.143L20.9789 32.577L20.6879 33.939L22.9489 34.423L22.7509 35.346ZM27.9829 38.3C27.6829 38.522 27.3279 38.66 26.9569 38.698C26.5122 38.7552 26.0609 38.7332 25.6239 38.633C25.1666 38.547 24.7408 38.3397 24.3909 38.033C24.0619 37.733 23.8309 37.341 23.7289 36.908C23.6148 36.4091 23.6148 35.8909 23.7289 35.392L23.8109 35.003C23.9079 34.492 24.1139 34.007 24.4159 33.583C24.6749 33.224 25.0359 32.953 25.4529 32.803C25.9496 32.6563 26.4773 32.6502 26.9773 32.7854C27.4772 32.9207 27.9299 33.1919 28.2849 33.569C28.6101 34.0184 28.7462 34.5774 28.6639 35.126L27.5159 34.881C27.5489 34.601 27.4799 34.32 27.3219 34.088C27.1459 33.8805 26.9009 33.7434 26.6319 33.702C26.4554 33.6544 26.2695 33.6529 26.0922 33.6975C25.9148 33.7421 25.7519 33.8315 25.6189 33.957C25.2959 34.313 25.0849 34.757 25.0139 35.232L24.9389 35.598C24.8039 36.068 24.8219 36.568 24.9899 37.028C25.0734 37.2055 25.199 37.3598 25.3559 37.4775C25.5128 37.5952 25.6962 37.6726 25.8899 37.703C26.2229 37.809 26.5849 37.78 26.8969 37.623L27.1069 36.638L26.0369 36.408L26.2219 35.541L28.4719 36.021L27.9829 38.3Z" fill="white"/>
</svg>
