<svg width="39" height="45" viewBox="0 0 39 45" fill="none" xmlns="http://www.w3.org/2000/svg">
<path d="M29.664 4.02915L7.75803 0.650146L1.85803 38.8911L32.899 43.6791L37.389 14.5731L29.664 4.02915Z" fill="white" stroke="#1D1D1B" stroke-width="1.3" stroke-linecap="round" stroke-linejoin="round"/>
<path d="M28.254 13.1641L37.389 14.5731L29.664 4.02905L28.254 13.1641Z" fill="white" stroke="#1D1D1B" stroke-width="1.3" stroke-linecap="round" stroke-linejoin="round"/>
<path d="M23.37 23.4171L2.31602 20.1681L0.650024 30.9631L21.704 34.2121L23.37 23.4171Z" fill="#EF4444" stroke="#EF4444" stroke-width="1.3" stroke-linecap="round" stroke-linejoin="round"/>
<path d="M6.00396 27.319L5.65096 29.61L4.33496 29.407L5.34096 22.894L7.55996 23.236C7.84651 23.2667 8.12344 23.3571 8.37286 23.5014C8.62228 23.6458 8.83864 23.8408 9.00796 24.074C9.16975 24.3125 9.28266 24.5806 9.34016 24.863C9.39766 25.1454 9.39861 25.4363 9.34296 25.719C9.3148 25.999 9.22901 26.2702 9.09098 26.5154C8.95296 26.7607 8.7657 26.9747 8.54096 27.144C8.2987 27.3033 8.02721 27.413 7.74225 27.4665C7.45729 27.5201 7.16453 27.5165 6.88096 27.456L6.00396 27.319ZM6.17396 26.224L7.07396 26.364C7.18244 26.3866 7.29465 26.3843 7.40207 26.3571C7.50949 26.3299 7.60931 26.2786 7.69396 26.207C7.87596 26.023 7.98796 25.781 8.00996 25.523C8.06734 25.2507 8.03579 24.9671 7.91996 24.714C7.87153 24.6128 7.79879 24.5251 7.70823 24.4588C7.61767 24.3925 7.51211 24.3496 7.40096 24.334L6.48396 24.193L6.17396 26.224ZM9.54696 30.212L10.553 23.698L12.278 23.964C12.6174 24.0006 12.9452 24.1091 13.2394 24.2824C13.5336 24.4557 13.7875 24.6898 13.984 24.969C14.376 25.591 14.514 26.341 14.369 27.062L14.206 28.118C14.1348 28.8585 13.7809 29.5429 13.218 30.029C12.9385 30.24 12.6171 30.3886 12.2754 30.4648C11.9337 30.5411 11.5796 30.5432 11.237 30.471L9.54696 30.212ZM11.698 24.999L11.031 29.324L11.424 29.385C11.5919 29.4294 11.7679 29.434 11.938 29.3986C12.1081 29.3632 12.2676 29.2887 12.404 29.181C12.674 28.853 12.836 28.451 12.87 28.028L13.045 26.896C13.1505 26.4624 13.1304 26.0077 12.987 25.585C12.903 25.4408 12.7856 25.3189 12.6446 25.2296C12.5036 25.1403 12.3432 25.0863 12.177 25.072L11.698 24.999ZM18.493 28.871L16.449 28.556L16.039 31.213L14.723 31.01L15.728 24.497L19.335 25.053L19.168 26.15L16.878 25.796L16.618 27.464L18.662 27.78L18.493 28.871Z" fill="white"/>
</svg>
