<svg width="39" height="44" viewBox="0 0 39 44" fill="none" xmlns="http://www.w3.org/2000/svg">
<path d="M8.85718 0.553589L0.607178 36.4036L29.6322 43.1536L37.8822 7.22859L8.85718 0.553589Z" fill="white"/>
<path d="M29.6321 43.6036H29.5571L0.457136 36.9286C0.311252 36.8928 0.184089 36.8037 0.100771 36.6787C0.0174531 36.5537 -0.0159585 36.402 0.00713706 36.2536L8.25714 0.403606C8.30843 0.255543 8.4156 0.13342 8.55576 0.0633442C8.69591 -0.00673171 8.85791 -0.0191996 9.00714 0.0286061L38.0321 6.77861C38.1642 6.81262 38.2806 6.89057 38.3624 6.99963C38.4442 7.10869 38.4864 7.24235 38.4821 7.37861L30.2321 43.2286C30.1981 43.3606 30.1202 43.4771 30.0111 43.5589C29.9021 43.6407 29.7684 43.6829 29.6321 43.6786V43.6036ZM1.20714 36.0286L29.2571 42.4786L37.2071 7.75361L9.23214 1.22861L1.20714 35.9536V36.0286Z" fill="#1D1D1B"/>
<path d="M30.6072 13.6036L3.98215 7.45361L1.20715 19.7536L27.6822 25.8286L30.6072 13.6036Z" fill="#169154"/>
<path d="M27.7571 26.3536H27.6071L1.20714 20.3536C1.06125 20.3178 0.934089 20.2287 0.850771 20.1037C0.767453 19.9787 0.734042 19.827 0.757137 19.6786L3.60714 7.4536C3.6429 7.30771 3.73208 7.18055 3.85706 7.09723C3.98204 7.01391 4.13372 6.9805 4.28214 7.0036L30.7571 13.1536C30.903 13.1894 31.0302 13.2785 31.1135 13.4035C31.1968 13.5285 31.2302 13.6802 31.2071 13.8286L28.3571 26.0536C28.339 26.1795 28.2757 26.2945 28.1792 26.3772C28.0826 26.46 27.9593 26.5049 27.8321 26.5036L27.7571 26.3536ZM1.95714 19.3036L27.3821 25.1536L29.9321 14.0536L4.43214 8.1286L1.95714 19.3786V19.3036Z" fill="#169154"/>
<path d="M17.2571 28.6036H17.1071L7.73209 26.3536C7.63309 26.379 7.52922 26.3788 7.43035 26.3528C7.33148 26.3268 7.24088 26.2761 7.16715 26.2053C7.09341 26.1344 7.03899 26.046 7.00905 25.9482C6.97911 25.8505 6.97463 25.7467 6.99605 25.6468C7.01747 25.5468 7.06408 25.454 7.13144 25.3771C7.1988 25.3002 7.28469 25.2418 7.38096 25.2074C7.47723 25.1731 7.58069 25.1638 7.68152 25.1807C7.78235 25.1975 7.87721 25.2398 7.95709 25.3036L17.4821 27.4786C17.5939 27.5345 17.6855 27.6239 17.7441 27.7343C17.8026 27.8448 17.8252 27.9707 17.8087 28.0946C17.7922 28.2186 17.7374 28.3342 17.6519 28.4255C17.5665 28.5167 17.4547 28.579 17.3321 28.6036H17.2571ZM21.0821 33.1036H20.9321L6.98209 30.0286C6.88872 30.038 6.79445 30.0253 6.70686 29.9917C6.61926 29.958 6.54078 29.9042 6.47773 29.8347C6.41468 29.7652 6.36881 29.6819 6.34381 29.5915C6.3188 29.501 6.31537 29.406 6.33377 29.3139C6.35218 29.2219 6.39191 29.1355 6.44977 29.0616C6.50764 28.9877 6.58203 28.9285 6.66697 28.8886C6.7519 28.8487 6.84501 28.8292 6.93882 28.8318C7.03262 28.8344 7.12451 28.859 7.20709 28.9036L21.2321 32.0536C21.3439 32.1095 21.4355 32.1989 21.4941 32.3093C21.5526 32.4198 21.5752 32.5457 21.5587 32.6696C21.5422 32.7936 21.4874 32.9092 21.4019 33.0005C21.3165 33.0917 21.2047 33.154 21.0821 33.1786V33.1036ZM20.2571 36.7036H20.1071L6.08209 33.4786C5.98872 33.488 5.89445 33.4753 5.80685 33.4417C5.71926 33.408 5.64078 33.3542 5.57773 33.2847C5.51468 33.2152 5.46881 33.1319 5.44381 33.0415C5.4188 32.951 5.41537 32.856 5.43377 32.7639C5.45218 32.6719 5.49191 32.5855 5.54977 32.5116C5.60764 32.4377 5.68203 32.3785 5.76697 32.3386C5.8519 32.2987 5.94501 32.2792 6.03882 32.2818C6.13263 32.2844 6.22451 32.309 6.30709 32.3536L20.4821 35.5786C20.5939 35.6345 20.6855 35.7239 20.7441 35.8343C20.8026 35.9448 20.8252 36.0707 20.8087 36.1946C20.7922 36.3186 20.7374 36.4342 20.6519 36.5255C20.5665 36.6167 20.4547 36.679 20.3321 36.7036H20.2571Z" fill="#1D1D1B"/>
<path d="M23.9322 14.7286L24.3822 17.4286L25.9572 15.1786L27.6072 15.6286L24.9822 18.7786L25.9572 22.9036L24.2322 22.5286L23.7822 19.7536L22.2072 22.0036L20.5572 21.6286L23.1822 18.3286L22.2822 14.3536L23.9322 14.7286ZM18.9072 19.2286V18.5536L18.6072 18.1786L18.1572 17.8036L17.4072 17.2786C17.1851 17.102 16.9838 16.9007 16.8072 16.6786L16.5072 15.9286V15.1036L16.8822 14.3536C17.0322 14.0536 17.2572 13.9036 17.4822 13.7536C17.7402 13.6266 18.0203 13.5502 18.3072 13.5286C19.0584 13.45 19.8109 13.665 20.4072 14.1286C20.7072 14.4286 20.9322 14.7286 21.0072 15.1036C21.1572 15.4786 21.1572 15.8536 21.0072 16.3786L19.5822 16.0036V15.4786C19.5822 15.3164 19.5295 15.1585 19.4322 15.0286C19.3572 14.8786 19.2072 14.8036 18.9822 14.7286H18.4572C18.3304 14.7977 18.2262 14.9018 18.1572 15.0286L17.9322 15.4036V15.7786L18.1572 16.0786L18.4572 16.3786L18.9072 16.6786L19.6572 17.3536L20.1822 17.9536L20.4072 18.7036C20.4799 19.2806 20.3471 19.8648 20.0322 20.3536L19.4322 20.8786C19.2072 21.0286 18.9072 21.1036 18.6072 21.1036C17.9513 21.1437 17.2984 20.987 16.7322 20.6536C16.4322 20.5786 16.2072 20.3536 15.9822 20.0536L15.6072 19.2286L15.6822 18.1036L17.1822 18.4036L17.1072 19.0036L17.1822 19.4536L17.4822 19.7536L17.9322 19.9036H18.3822C18.5322 19.9036 18.6822 19.7536 18.7572 19.6786L18.9072 19.2286ZM14.7822 19.0036L14.4822 20.2036L11.4822 19.5286L11.7072 18.3286L14.7072 19.0786L14.7822 19.0036ZM13.5822 12.4036L11.9322 19.6036L10.4322 19.2286L12.1572 11.9536L13.5822 12.3286V12.4036ZM7.65716 10.9786L8.10715 13.6786L9.60715 11.4286L11.2572 11.8036L8.70715 15.0286L9.60715 19.1536L7.95715 18.7036L7.50715 16.0036L5.85715 18.2536L4.20715 17.8786L6.90716 14.5786L5.93215 10.6036L7.65716 10.9786Z" fill="white"/>
</svg>
